<?xml version="1.0" encoding="UTF-8" standalone="no"?>
<!DOCTYPE svg PUBLIC "-//W3C//DTD SVG 1.1//EN"
 "http://www.w3.org/Graphics/SVG/1.1/DTD/svg11.dtd">
<!-- Generated by graphviz version 2.40.1 (20161225.0304)
 -->
<!-- Title: dependencies Pages: 1 -->
<svg width="960pt" height="211pt"
 viewBox="0.00 0.00 960.00 211.00" xmlns="http://www.w3.org/2000/svg" xmlns:xlink="http://www.w3.org/1999/xlink">
<g id="graph0" class="graph" transform="scale(1 1) rotate(0) translate(4 207)">
<title>dependencies</title>
<polygon fill="#ffffff" stroke="transparent" points="-4,4 -4,-207 956,-207 956,4 -4,4"/>
<text text-anchor="start" x="455.0091" y="-42.4" font-family="sans-serif" font-weight="bold" font-size="14.00" fill="#000000">Legend</text>
<polygon fill="#ffffb3" stroke="transparent" points="242,-10 242,-30 262,-30 262,-10 242,-10"/>
<text text-anchor="start" x="265.629" y="-15.4" font-family="sans-serif" font-size="14.00" fill="#000000"> &#160;Declarations</text>
<polygon fill="#8dd3c7" stroke="transparent" points="355,-10 355,-30 375,-30 375,-10 355,-10"/>
<text text-anchor="start" x="378.7251" y="-15.4" font-family="sans-serif" font-size="14.00" fill="#000000"> &#160;Module</text>
<polygon fill="#80b1d3" stroke="transparent" points="441,-10 441,-30 461,-30 461,-10 441,-10"/>
<text text-anchor="start" x="464.7812" y="-15.4" font-family="sans-serif" font-size="14.00" fill="#000000"> &#160;Bootstrap</text>
<polygon fill="#fdb462" stroke="transparent" points="538,-10 538,-30 558,-30 558,-10 538,-10"/>
<text text-anchor="start" x="561.6732" y="-15.4" font-family="sans-serif" font-size="14.00" fill="#000000"> &#160;Providers</text>
<polygon fill="#fb8072" stroke="transparent" points="634,-10 634,-30 654,-30 654,-10 634,-10"/>
<text text-anchor="start" x="657.7258" y="-15.4" font-family="sans-serif" font-size="14.00" fill="#000000"> &#160;Exports</text>
<g id="clust1" class="cluster">
<title>cluster_EnginesModule</title>
<polygon fill="none" stroke="#000000" stroke-dasharray="1,5" points="8,-70 8,-195 944,-195 944,-70 8,-70"/>
</g>
<g id="clust2" class="cluster">
<title>cluster_EnginesModule_declarations</title>
<polygon fill="none" stroke="#000000" points="306,-78 306,-130 936,-130 936,-78 306,-78"/>
</g>
<g id="clust7" class="cluster">
<title>cluster_EnginesModule_imports</title>
<polygon fill="none" stroke="#000000" points="16,-78 16,-130 298,-130 298,-78 16,-78"/>
</g>
<!-- EnginesComponent -->
<g id="node1" class="node">
<title>EnginesComponent</title>
<polygon fill="#ffffb3" stroke="#000000" points="928.4356,-122 801.5644,-122 801.5644,-86 928.4356,-86 928.4356,-122"/>
<text text-anchor="middle" x="865" y="-99.8" font-family="Times,serif" font-size="14.00" fill="#000000">EnginesComponent</text>
</g>
<!-- EnginesModule -->
<g id="node5" class="node">
<title>EnginesModule</title>
<polygon fill="#8dd3c7" stroke="#000000" points="520.1528,-187 517.1528,-191 496.1528,-191 493.1528,-187 415.8472,-187 415.8472,-151 520.1528,-151 520.1528,-187"/>
<text text-anchor="middle" x="468" y="-164.8" font-family="Times,serif" font-size="14.00" fill="#000000">EnginesModule</text>
</g>
<!-- EnginesComponent&#45;&gt;EnginesModule -->
<g id="edge1" class="edge">
<title>EnginesComponent&#45;&gt;EnginesModule</title>
<path fill="none" stroke="#000000" d="M865,-122.2843C865,-143.3211 865,-175 865,-175 865,-175 530.3091,-175 530.3091,-175"/>
<polygon fill="#000000" stroke="#000000" points="530.3091,-171.5001 520.3091,-175 530.309,-178.5001 530.3091,-171.5001"/>
</g>
<!-- EngineListComponent -->
<g id="node2" class="node">
<title>EngineListComponent</title>
<polygon fill="#ffffb3" stroke="#000000" points="783.2688,-122 640.7312,-122 640.7312,-86 783.2688,-86 783.2688,-122"/>
<text text-anchor="middle" x="712" y="-99.8" font-family="Times,serif" font-size="14.00" fill="#000000">EngineListComponent</text>
</g>
<!-- EngineListComponent&#45;&gt;EnginesModule -->
<g id="edge2" class="edge">
<title>EngineListComponent&#45;&gt;EnginesModule</title>
<path fill="none" stroke="#000000" d="M712,-122.0225C712,-139.3734 712,-163 712,-163 712,-163 530.3441,-163 530.3441,-163"/>
<polygon fill="#000000" stroke="#000000" points="530.3442,-159.5001 520.3441,-163 530.3441,-166.5001 530.3442,-159.5001"/>
</g>
<!-- EngineEditComponent -->
<g id="node3" class="node">
<title>EngineEditComponent</title>
<polygon fill="#ffffb3" stroke="#000000" points="622.3244,-122 477.6756,-122 477.6756,-86 622.3244,-86 622.3244,-122"/>
<text text-anchor="middle" x="550" y="-99.8" font-family="Times,serif" font-size="14.00" fill="#000000">EngineEditComponent</text>
</g>
<!-- EngineEditComponent&#45;&gt;EnginesModule -->
<g id="edge3" class="edge">
<title>EngineEditComponent&#45;&gt;EnginesModule</title>
<path fill="none" stroke="#000000" d="M499.0821,-122.1061C499.0821,-122.1061 499.0821,-140.991 499.0821,-140.991"/>
<polygon fill="#000000" stroke="#000000" points="495.5821,-140.9909 499.0821,-150.991 502.5821,-140.991 495.5821,-140.9909"/>
</g>
<!-- EngineAddComponent -->
<g id="node4" class="node">
<title>EngineAddComponent</title>
<polygon fill="#ffffb3" stroke="#000000" points="459.5968,-122 314.4032,-122 314.4032,-86 459.5968,-86 459.5968,-122"/>
<text text-anchor="middle" x="387" y="-99.8" font-family="Times,serif" font-size="14.00" fill="#000000">EngineAddComponent</text>
</g>
<!-- EngineAddComponent&#45;&gt;EnginesModule -->
<g id="edge4" class="edge">
<title>EngineAddComponent&#45;&gt;EnginesModule</title>
<path fill="none" stroke="#000000" d="M437.6112,-122.1061C437.6112,-122.1061 437.6112,-140.991 437.6112,-140.991"/>
<polygon fill="#000000" stroke="#000000" points="434.1112,-140.9909 437.6112,-150.991 441.1112,-140.991 434.1112,-140.9909"/>
</g>
<!-- ThemeModule -->
<g id="node6" class="node">
<title>ThemeModule</title>
<polygon fill="#8dd3c7" stroke="#000000" points="290.4231,-122 287.4231,-126 266.4231,-126 263.4231,-122 191.5769,-122 191.5769,-86 290.4231,-86 290.4231,-122"/>
<text text-anchor="middle" x="241" y="-99.8" font-family="Times,serif" font-size="14.00" fill="#000000">ThemeModule</text>
</g>
<!-- ThemeModule&#45;&gt;EnginesModule -->
<g id="edge5" class="edge">
<title>ThemeModule&#45;&gt;EnginesModule</title>
<path fill="none" stroke="#000000" d="M241,-122.0225C241,-139.3734 241,-163 241,-163 241,-163 405.6366,-163 405.6366,-163"/>
<polygon fill="#000000" stroke="#000000" points="405.6366,-166.5001 415.6366,-163 405.6366,-159.5001 405.6366,-166.5001"/>
</g>
<!-- EnginesRoutingModule -->
<g id="node7" class="node">
<title>EnginesRoutingModule</title>
<polygon fill="#8dd3c7" stroke="#000000" points="173.7702,-122 170.7702,-126 149.7702,-126 146.7702,-122 24.2298,-122 24.2298,-86 173.7702,-86 173.7702,-122"/>
<text text-anchor="middle" x="99" y="-99.8" font-family="Times,serif" font-size="14.00" fill="#000000">EnginesRoutingModule</text>
</g>
<!-- EnginesRoutingModule&#45;&gt;EnginesModule -->
<g id="edge6" class="edge">
<title>EnginesRoutingModule&#45;&gt;EnginesModule</title>
<path fill="none" stroke="#000000" d="M99,-122.2843C99,-143.3211 99,-175 99,-175 99,-175 405.5232,-175 405.5232,-175"/>
<polygon fill="#000000" stroke="#000000" points="405.5232,-178.5001 415.5232,-175 405.5231,-171.5001 405.5232,-178.5001"/>
</g>
</g>
</svg>
