<?xml version="1.0" encoding="UTF-8" standalone="no"?>
<!DOCTYPE svg PUBLIC "-//W3C//DTD SVG 1.1//EN"
 "http://www.w3.org/Graphics/SVG/1.1/DTD/svg11.dtd">
<!-- Generated by graphviz version 2.40.1 (20161225.0304)
 -->
<!-- Title: dependencies Pages: 1 -->
<svg width="717pt" height="211pt"
 viewBox="0.00 0.00 717.00 211.00" xmlns="http://www.w3.org/2000/svg" xmlns:xlink="http://www.w3.org/1999/xlink">
<g id="graph0" class="graph" transform="scale(1 1) rotate(0) translate(4 207)">
<title>dependencies</title>
<polygon fill="#ffffff" stroke="transparent" points="-4,4 -4,-207 713,-207 713,4 -4,4"/>
<text text-anchor="start" x="333.5091" y="-42.4" font-family="sans-serif" font-weight="bold" font-size="14.00" fill="#000000">Legend</text>
<polygon fill="#ffffb3" stroke="transparent" points="120.5,-10 120.5,-30 140.5,-30 140.5,-10 120.5,-10"/>
<text text-anchor="start" x="144.129" y="-15.4" font-family="sans-serif" font-size="14.00" fill="#000000"> &#160;Declarations</text>
<polygon fill="#8dd3c7" stroke="transparent" points="233.5,-10 233.5,-30 253.5,-30 253.5,-10 233.5,-10"/>
<text text-anchor="start" x="257.2251" y="-15.4" font-family="sans-serif" font-size="14.00" fill="#000000"> &#160;Module</text>
<polygon fill="#80b1d3" stroke="transparent" points="319.5,-10 319.5,-30 339.5,-30 339.5,-10 319.5,-10"/>
<text text-anchor="start" x="343.2812" y="-15.4" font-family="sans-serif" font-size="14.00" fill="#000000"> &#160;Bootstrap</text>
<polygon fill="#fdb462" stroke="transparent" points="416.5,-10 416.5,-30 436.5,-30 436.5,-10 416.5,-10"/>
<text text-anchor="start" x="440.1732" y="-15.4" font-family="sans-serif" font-size="14.00" fill="#000000"> &#160;Providers</text>
<polygon fill="#fb8072" stroke="transparent" points="512.5,-10 512.5,-30 532.5,-30 532.5,-10 512.5,-10"/>
<text text-anchor="start" x="536.2258" y="-15.4" font-family="sans-serif" font-size="14.00" fill="#000000"> &#160;Exports</text>
<g id="clust1" class="cluster">
<title>cluster_AuthModule</title>
<polygon fill="none" stroke="#000000" stroke-dasharray="1,5" points="8,-70 8,-195 701,-195 701,-70 8,-70"/>
</g>
<g id="clust2" class="cluster">
<title>cluster_AuthModule_declarations</title>
<polygon fill="none" stroke="#000000" points="289,-78 289,-130 693,-130 693,-78 289,-78"/>
</g>
<g id="clust6" class="cluster">
<title>cluster_AuthModule_imports</title>
<polygon fill="none" stroke="#000000" points="16,-78 16,-130 281,-130 281,-78 16,-78"/>
</g>
<!-- LoginComponent -->
<g id="node1" class="node">
<title>LoginComponent</title>
<polygon fill="#ffffb3" stroke="#000000" points="685.2758,-122 570.7242,-122 570.7242,-86 685.2758,-86 685.2758,-122"/>
<text text-anchor="middle" x="628" y="-99.8" font-family="Times,serif" font-size="14.00" fill="#000000">LoginComponent</text>
</g>
<!-- AuthModule -->
<g id="node4" class="node">
<title>AuthModule</title>
<polygon fill="#8dd3c7" stroke="#000000" points="395.5482,-187 392.5482,-191 371.5482,-191 368.5482,-187 308.4518,-187 308.4518,-151 395.5482,-151 395.5482,-187"/>
<text text-anchor="middle" x="352" y="-164.8" font-family="Times,serif" font-size="14.00" fill="#000000">AuthModule</text>
</g>
<!-- LoginComponent&#45;&gt;AuthModule -->
<g id="edge1" class="edge">
<title>LoginComponent&#45;&gt;AuthModule</title>
<path fill="none" stroke="#000000" d="M628,-122.2843C628,-143.3211 628,-175 628,-175 628,-175 405.733,-175 405.733,-175"/>
<polygon fill="#000000" stroke="#000000" points="405.7331,-171.5001 395.733,-175 405.733,-178.5001 405.7331,-171.5001"/>
</g>
<!-- RegisterComponent -->
<g id="node2" class="node">
<title>RegisterComponent</title>
<polygon fill="#ffffb3" stroke="#000000" points="552.9846,-122 425.0154,-122 425.0154,-86 552.9846,-86 552.9846,-122"/>
<text text-anchor="middle" x="489" y="-99.8" font-family="Times,serif" font-size="14.00" fill="#000000">RegisterComponent</text>
</g>
<!-- RegisterComponent&#45;&gt;AuthModule -->
<g id="edge2" class="edge">
<title>RegisterComponent&#45;&gt;AuthModule</title>
<path fill="none" stroke="#000000" d="M489,-122.0225C489,-139.3734 489,-163 489,-163 489,-163 405.7243,-163 405.7243,-163"/>
<polygon fill="#000000" stroke="#000000" points="405.7244,-159.5001 395.7243,-163 405.7243,-166.5001 405.7244,-159.5001"/>
</g>
<!-- AuthComponent -->
<g id="node3" class="node">
<title>AuthComponent</title>
<polygon fill="#ffffb3" stroke="#000000" points="406.8301,-122 297.1699,-122 297.1699,-86 406.8301,-86 406.8301,-122"/>
<text text-anchor="middle" x="352" y="-99.8" font-family="Times,serif" font-size="14.00" fill="#000000">AuthComponent</text>
</g>
<!-- AuthComponent&#45;&gt;AuthModule -->
<g id="edge3" class="edge">
<title>AuthComponent&#45;&gt;AuthModule</title>
<path fill="none" stroke="#000000" d="M352,-122.1061C352,-122.1061 352,-140.991 352,-140.991"/>
<polygon fill="#000000" stroke="#000000" points="348.5001,-140.9909 352,-150.991 355.5001,-140.991 348.5001,-140.9909"/>
</g>
<!-- ThemeModule -->
<g id="node5" class="node">
<title>ThemeModule</title>
<polygon fill="#8dd3c7" stroke="#000000" points="273.4231,-122 270.4231,-126 249.4231,-126 246.4231,-122 174.5769,-122 174.5769,-86 273.4231,-86 273.4231,-122"/>
<text text-anchor="middle" x="224" y="-99.8" font-family="Times,serif" font-size="14.00" fill="#000000">ThemeModule</text>
</g>
<!-- ThemeModule&#45;&gt;AuthModule -->
<g id="edge4" class="edge">
<title>ThemeModule&#45;&gt;AuthModule</title>
<path fill="none" stroke="#000000" d="M224,-122.0225C224,-139.3734 224,-163 224,-163 224,-163 298.3077,-163 298.3077,-163"/>
<polygon fill="#000000" stroke="#000000" points="298.3077,-166.5001 308.3077,-163 298.3076,-159.5001 298.3077,-166.5001"/>
</g>
<!-- AuthRoutingModule -->
<g id="node6" class="node">
<title>AuthRoutingModule</title>
<polygon fill="#8dd3c7" stroke="#000000" points="156.1652,-122 153.1652,-126 132.1652,-126 129.1652,-122 23.8348,-122 23.8348,-86 156.1652,-86 156.1652,-122"/>
<text text-anchor="middle" x="90" y="-99.8" font-family="Times,serif" font-size="14.00" fill="#000000">AuthRoutingModule</text>
</g>
<!-- AuthRoutingModule&#45;&gt;AuthModule -->
<g id="edge5" class="edge">
<title>AuthRoutingModule&#45;&gt;AuthModule</title>
<path fill="none" stroke="#000000" d="M90,-122.2843C90,-143.3211 90,-175 90,-175 90,-175 298.4419,-175 298.4419,-175"/>
<polygon fill="#000000" stroke="#000000" points="298.442,-178.5001 308.4419,-175 298.4419,-171.5001 298.442,-178.5001"/>
</g>
</g>
</svg>
