<?xml version="1.0" encoding="UTF-8" standalone="no"?>
<!DOCTYPE svg PUBLIC "-//W3C//DTD SVG 1.1//EN"
 "http://www.w3.org/Graphics/SVG/1.1/DTD/svg11.dtd">
<!-- Generated by graphviz version 2.40.1 (20161225.0304)
 -->
<!-- Title: dependencies Pages: 1 -->
<svg width="860pt" height="211pt"
 viewBox="0.00 0.00 860.00 211.00" xmlns="http://www.w3.org/2000/svg" xmlns:xlink="http://www.w3.org/1999/xlink">
<g id="graph0" class="graph" transform="scale(1 1) rotate(0) translate(4 207)">
<title>dependencies</title>
<polygon fill="#ffffff" stroke="transparent" points="-4,4 -4,-207 856,-207 856,4 -4,4"/>
<text text-anchor="start" x="405.0091" y="-42.4" font-family="sans-serif" font-weight="bold" font-size="14.00" fill="#000000">Legend</text>
<polygon fill="#ffffb3" stroke="transparent" points="192,-10 192,-30 212,-30 212,-10 192,-10"/>
<text text-anchor="start" x="215.629" y="-15.4" font-family="sans-serif" font-size="14.00" fill="#000000"> &#160;Declarations</text>
<polygon fill="#8dd3c7" stroke="transparent" points="305,-10 305,-30 325,-30 325,-10 305,-10"/>
<text text-anchor="start" x="328.7251" y="-15.4" font-family="sans-serif" font-size="14.00" fill="#000000"> &#160;Module</text>
<polygon fill="#80b1d3" stroke="transparent" points="391,-10 391,-30 411,-30 411,-10 391,-10"/>
<text text-anchor="start" x="414.7812" y="-15.4" font-family="sans-serif" font-size="14.00" fill="#000000"> &#160;Bootstrap</text>
<polygon fill="#fdb462" stroke="transparent" points="488,-10 488,-30 508,-30 508,-10 488,-10"/>
<text text-anchor="start" x="511.6732" y="-15.4" font-family="sans-serif" font-size="14.00" fill="#000000"> &#160;Providers</text>
<polygon fill="#fb8072" stroke="transparent" points="584,-10 584,-30 604,-30 604,-10 584,-10"/>
<text text-anchor="start" x="607.7258" y="-15.4" font-family="sans-serif" font-size="14.00" fill="#000000"> &#160;Exports</text>
<g id="clust1" class="cluster">
<title>cluster_CarsModule</title>
<polygon fill="none" stroke="#000000" stroke-dasharray="1,5" points="8,-70 8,-195 844,-195 844,-70 8,-70"/>
</g>
<g id="clust2" class="cluster">
<title>cluster_CarsModule_declarations</title>
<polygon fill="none" stroke="#000000" points="286,-78 286,-130 836,-130 836,-78 286,-78"/>
</g>
<g id="clust7" class="cluster">
<title>cluster_CarsModule_imports</title>
<polygon fill="none" stroke="#000000" points="16,-78 16,-130 278,-130 278,-78 16,-78"/>
</g>
<!-- CarsComponent -->
<g id="node1" class="node">
<title>CarsComponent</title>
<polygon fill="#ffffb3" stroke="#000000" points="828.4888,-122 721.5112,-122 721.5112,-86 828.4888,-86 828.4888,-122"/>
<text text-anchor="middle" x="775" y="-99.8" font-family="Times,serif" font-size="14.00" fill="#000000">CarsComponent</text>
</g>
<!-- CarsModule -->
<g id="node5" class="node">
<title>CarsModule</title>
<polygon fill="#8dd3c7" stroke="#000000" points="470.7065,-187 467.7065,-191 446.7065,-191 443.7065,-187 385.2935,-187 385.2935,-151 470.7065,-151 470.7065,-187"/>
<text text-anchor="middle" x="428" y="-164.8" font-family="Times,serif" font-size="14.00" fill="#000000">CarsModule</text>
</g>
<!-- CarsComponent&#45;&gt;CarsModule -->
<g id="edge1" class="edge">
<title>CarsComponent&#45;&gt;CarsModule</title>
<path fill="none" stroke="#000000" d="M775,-122.2843C775,-143.3211 775,-175 775,-175 775,-175 480.897,-175 480.897,-175"/>
<polygon fill="#000000" stroke="#000000" points="480.8971,-171.5001 470.897,-175 480.897,-178.5001 480.8971,-171.5001"/>
</g>
<!-- CarListComponent -->
<g id="node2" class="node">
<title>CarListComponent</title>
<polygon fill="#ffffb3" stroke="#000000" points="703.823,-122 580.177,-122 580.177,-86 703.823,-86 703.823,-122"/>
<text text-anchor="middle" x="642" y="-99.8" font-family="Times,serif" font-size="14.00" fill="#000000">CarListComponent</text>
</g>
<!-- CarListComponent&#45;&gt;CarsModule -->
<g id="edge2" class="edge">
<title>CarListComponent&#45;&gt;CarsModule</title>
<path fill="none" stroke="#000000" d="M642,-122.0225C642,-139.3734 642,-163 642,-163 642,-163 480.7918,-163 480.7918,-163"/>
<polygon fill="#000000" stroke="#000000" points="480.7918,-159.5001 470.7918,-163 480.7917,-166.5001 480.7918,-159.5001"/>
</g>
<!-- CarEditComponent -->
<g id="node3" class="node">
<title>CarEditComponent</title>
<polygon fill="#ffffb3" stroke="#000000" points="562.3781,-122 437.6219,-122 437.6219,-86 562.3781,-86 562.3781,-122"/>
<text text-anchor="middle" x="500" y="-99.8" font-family="Times,serif" font-size="14.00" fill="#000000">CarEditComponent</text>
</g>
<!-- CarEditComponent&#45;&gt;CarsModule -->
<g id="edge3" class="edge">
<title>CarEditComponent&#45;&gt;CarsModule</title>
<path fill="none" stroke="#000000" d="M454.0821,-122.1061C454.0821,-122.1061 454.0821,-140.991 454.0821,-140.991"/>
<polygon fill="#000000" stroke="#000000" points="450.5821,-140.9909 454.0821,-150.991 457.5821,-140.991 450.5821,-140.9909"/>
</g>
<!-- CarAddComponent -->
<g id="node4" class="node">
<title>CarAddComponent</title>
<polygon fill="#ffffb3" stroke="#000000" points="419.6513,-122 294.3487,-122 294.3487,-86 419.6513,-86 419.6513,-122"/>
<text text-anchor="middle" x="357" y="-99.8" font-family="Times,serif" font-size="14.00" fill="#000000">CarAddComponent</text>
</g>
<!-- CarAddComponent&#45;&gt;CarsModule -->
<g id="edge4" class="edge">
<title>CarAddComponent&#45;&gt;CarsModule</title>
<path fill="none" stroke="#000000" d="M402.6112,-122.1061C402.6112,-122.1061 402.6112,-140.991 402.6112,-140.991"/>
<polygon fill="#000000" stroke="#000000" points="399.1112,-140.9909 402.6112,-150.991 406.1112,-140.991 399.1112,-140.9909"/>
</g>
<!-- ThemeModule -->
<g id="node6" class="node">
<title>ThemeModule</title>
<polygon fill="#8dd3c7" stroke="#000000" points="270.4231,-122 267.4231,-126 246.4231,-126 243.4231,-122 171.5769,-122 171.5769,-86 270.4231,-86 270.4231,-122"/>
<text text-anchor="middle" x="221" y="-99.8" font-family="Times,serif" font-size="14.00" fill="#000000">ThemeModule</text>
</g>
<!-- ThemeModule&#45;&gt;CarsModule -->
<g id="edge5" class="edge">
<title>ThemeModule&#45;&gt;CarsModule</title>
<path fill="none" stroke="#000000" d="M221,-122.0225C221,-139.3734 221,-163 221,-163 221,-163 375.3605,-163 375.3605,-163"/>
<polygon fill="#000000" stroke="#000000" points="375.3605,-166.5001 385.3605,-163 375.3604,-159.5001 375.3605,-166.5001"/>
</g>
<!-- CarsRoutingModule -->
<g id="node7" class="node">
<title>CarsRoutingModule</title>
<polygon fill="#8dd3c7" stroke="#000000" points="154.3244,-122 151.3244,-126 130.3244,-126 127.3244,-122 23.6756,-122 23.6756,-86 154.3244,-86 154.3244,-122"/>
<text text-anchor="middle" x="89" y="-99.8" font-family="Times,serif" font-size="14.00" fill="#000000">CarsRoutingModule</text>
</g>
<!-- CarsRoutingModule&#45;&gt;CarsModule -->
<g id="edge6" class="edge">
<title>CarsRoutingModule&#45;&gt;CarsModule</title>
<path fill="none" stroke="#000000" d="M89,-122.2843C89,-143.3211 89,-175 89,-175 89,-175 375.0654,-175 375.0654,-175"/>
<polygon fill="#000000" stroke="#000000" points="375.0655,-178.5001 385.0654,-175 375.0654,-171.5001 375.0655,-178.5001"/>
</g>
</g>
</svg>
