<?xml version="1.0" encoding="UTF-8" standalone="no"?>
<!DOCTYPE svg PUBLIC "-//W3C//DTD SVG 1.1//EN"
 "http://www.w3.org/Graphics/SVG/1.1/DTD/svg11.dtd">
<!-- Generated by graphviz version 2.40.1 (20161225.0304)
 -->
<!-- Title: dependencies Pages: 1 -->
<svg width="554pt" height="211pt"
 viewBox="0.00 0.00 554.00 211.00" xmlns="http://www.w3.org/2000/svg" xmlns:xlink="http://www.w3.org/1999/xlink">
<g id="graph0" class="graph" transform="scale(1 1) rotate(0) translate(4 207)">
<title>dependencies</title>
<polygon fill="#ffffff" stroke="transparent" points="-4,4 -4,-207 550,-207 550,4 -4,4"/>
<text text-anchor="start" x="252.0091" y="-42.4" font-family="sans-serif" font-weight="bold" font-size="14.00" fill="#000000">Legend</text>
<polygon fill="#ffffb3" stroke="transparent" points="39,-10 39,-30 59,-30 59,-10 39,-10"/>
<text text-anchor="start" x="62.629" y="-15.4" font-family="sans-serif" font-size="14.00" fill="#000000"> &#160;Declarations</text>
<polygon fill="#8dd3c7" stroke="transparent" points="152,-10 152,-30 172,-30 172,-10 152,-10"/>
<text text-anchor="start" x="175.7251" y="-15.4" font-family="sans-serif" font-size="14.00" fill="#000000"> &#160;Module</text>
<polygon fill="#80b1d3" stroke="transparent" points="238,-10 238,-30 258,-30 258,-10 238,-10"/>
<text text-anchor="start" x="261.7812" y="-15.4" font-family="sans-serif" font-size="14.00" fill="#000000"> &#160;Bootstrap</text>
<polygon fill="#fdb462" stroke="transparent" points="335,-10 335,-30 355,-30 355,-10 335,-10"/>
<text text-anchor="start" x="358.6732" y="-15.4" font-family="sans-serif" font-size="14.00" fill="#000000"> &#160;Providers</text>
<polygon fill="#fb8072" stroke="transparent" points="431,-10 431,-30 451,-30 451,-10 431,-10"/>
<text text-anchor="start" x="454.7258" y="-15.4" font-family="sans-serif" font-size="14.00" fill="#000000"> &#160;Exports</text>
<g id="clust1" class="cluster">
<title>cluster_PagesModule</title>
<polygon fill="none" stroke="#000000" stroke-dasharray="1,5" points="8,-70 8,-195 538,-195 538,-70 8,-70"/>
</g>
<g id="clust2" class="cluster">
<title>cluster_PagesModule_declarations</title>
<polygon fill="none" stroke="#000000" points="400,-78 400,-130 530,-130 530,-78 400,-78"/>
</g>
<g id="clust4" class="cluster">
<title>cluster_PagesModule_imports</title>
<polygon fill="none" stroke="#000000" points="16,-78 16,-130 392,-130 392,-78 16,-78"/>
</g>
<!-- PagesComponent -->
<g id="node1" class="node">
<title>PagesComponent</title>
<polygon fill="#ffffb3" stroke="#000000" points="521.9888,-122 408.0112,-122 408.0112,-86 521.9888,-86 521.9888,-122"/>
<text text-anchor="middle" x="465" y="-99.8" font-family="Times,serif" font-size="14.00" fill="#000000">PagesComponent</text>
</g>
<!-- PagesModule -->
<g id="node2" class="node">
<title>PagesModule</title>
<polygon fill="#8dd3c7" stroke="#000000" points="312.2064,-187 309.2064,-191 288.2064,-191 285.2064,-187 219.7936,-187 219.7936,-151 312.2064,-151 312.2064,-187"/>
<text text-anchor="middle" x="266" y="-164.8" font-family="Times,serif" font-size="14.00" fill="#000000">PagesModule</text>
</g>
<!-- PagesComponent&#45;&gt;PagesModule -->
<g id="edge1" class="edge">
<title>PagesComponent&#45;&gt;PagesModule</title>
<path fill="none" stroke="#000000" d="M465,-122.1061C465,-141.3391 465,-169 465,-169 465,-169 322.1548,-169 322.1548,-169"/>
<polygon fill="#000000" stroke="#000000" points="322.1548,-165.5001 312.1548,-169 322.1548,-172.5001 322.1548,-165.5001"/>
</g>
<!-- ThemeModule -->
<g id="node3" class="node">
<title>ThemeModule</title>
<polygon fill="#8dd3c7" stroke="#000000" points="384.4231,-122 381.4231,-126 360.4231,-126 357.4231,-122 285.5769,-122 285.5769,-86 384.4231,-86 384.4231,-122"/>
<text text-anchor="middle" x="335" y="-99.8" font-family="Times,serif" font-size="14.00" fill="#000000">ThemeModule</text>
</g>
<!-- ThemeModule&#45;&gt;PagesModule -->
<g id="edge2" class="edge">
<title>ThemeModule&#45;&gt;PagesModule</title>
<path fill="none" stroke="#000000" d="M298.946,-122.1061C298.946,-122.1061 298.946,-140.991 298.946,-140.991"/>
<polygon fill="#000000" stroke="#000000" points="295.4461,-140.9909 298.946,-150.991 302.4461,-140.991 295.4461,-140.9909"/>
</g>
<!-- MiscellaneousModule -->
<g id="node4" class="node">
<title>MiscellaneousModule</title>
<polygon fill="#8dd3c7" stroke="#000000" points="268.4144,-122 265.4144,-126 244.4144,-126 241.4144,-122 127.5856,-122 127.5856,-86 268.4144,-86 268.4144,-122"/>
<text text-anchor="middle" x="198" y="-99.8" font-family="Times,serif" font-size="14.00" fill="#000000">MiscellaneousModule</text>
</g>
<!-- MiscellaneousModule&#45;&gt;PagesModule -->
<g id="edge3" class="edge">
<title>MiscellaneousModule&#45;&gt;PagesModule</title>
<path fill="none" stroke="#000000" d="M244.0519,-122.1061C244.0519,-122.1061 244.0519,-140.991 244.0519,-140.991"/>
<polygon fill="#000000" stroke="#000000" points="240.552,-140.9909 244.0519,-150.991 247.552,-140.991 240.552,-140.9909"/>
</g>
<!-- CarsModule -->
<g id="node5" class="node">
<title>CarsModule</title>
<polygon fill="#8dd3c7" stroke="#000000" points="109.7065,-122 106.7065,-126 85.7065,-126 82.7065,-122 24.2935,-122 24.2935,-86 109.7065,-86 109.7065,-122"/>
<text text-anchor="middle" x="67" y="-99.8" font-family="Times,serif" font-size="14.00" fill="#000000">CarsModule</text>
</g>
<!-- CarsModule&#45;&gt;PagesModule -->
<g id="edge4" class="edge">
<title>CarsModule&#45;&gt;PagesModule</title>
<path fill="none" stroke="#000000" d="M67,-122.1061C67,-141.3391 67,-169 67,-169 67,-169 209.8452,-169 209.8452,-169"/>
<polygon fill="#000000" stroke="#000000" points="209.8452,-172.5001 219.8452,-169 209.8452,-165.5001 209.8452,-172.5001"/>
</g>
</g>
</svg>
