<?xml version="1.0" encoding="UTF-8" standalone="no"?>
<!DOCTYPE svg PUBLIC "-//W3C//DTD SVG 1.1//EN"
 "http://www.w3.org/Graphics/SVG/1.1/DTD/svg11.dtd">
<!-- Generated by graphviz version 2.40.1 (20161225.0304)
 -->
<!-- Title: dependencies Pages: 1 -->
<svg width="950pt" height="211pt"
 viewBox="0.00 0.00 950.00 211.00" xmlns="http://www.w3.org/2000/svg" xmlns:xlink="http://www.w3.org/1999/xlink">
<g id="graph0" class="graph" transform="scale(1 1) rotate(0) translate(4 207)">
<title>dependencies</title>
<polygon fill="#ffffff" stroke="transparent" points="-4,4 -4,-207 946,-207 946,4 -4,4"/>
<text text-anchor="start" x="450.0091" y="-42.4" font-family="sans-serif" font-weight="bold" font-size="14.00" fill="#000000">Legend</text>
<polygon fill="#ffffb3" stroke="transparent" points="237,-10 237,-30 257,-30 257,-10 237,-10"/>
<text text-anchor="start" x="260.629" y="-15.4" font-family="sans-serif" font-size="14.00" fill="#000000"> &#160;Declarations</text>
<polygon fill="#8dd3c7" stroke="transparent" points="350,-10 350,-30 370,-30 370,-10 350,-10"/>
<text text-anchor="start" x="373.7251" y="-15.4" font-family="sans-serif" font-size="14.00" fill="#000000"> &#160;Module</text>
<polygon fill="#80b1d3" stroke="transparent" points="436,-10 436,-30 456,-30 456,-10 436,-10"/>
<text text-anchor="start" x="459.7812" y="-15.4" font-family="sans-serif" font-size="14.00" fill="#000000"> &#160;Bootstrap</text>
<polygon fill="#fdb462" stroke="transparent" points="533,-10 533,-30 553,-30 553,-10 533,-10"/>
<text text-anchor="start" x="556.6732" y="-15.4" font-family="sans-serif" font-size="14.00" fill="#000000"> &#160;Providers</text>
<polygon fill="#fb8072" stroke="transparent" points="629,-10 629,-30 649,-30 649,-10 629,-10"/>
<text text-anchor="start" x="652.7258" y="-15.4" font-family="sans-serif" font-size="14.00" fill="#000000"> &#160;Exports</text>
<g id="clust1" class="cluster">
<title>cluster_OwnersModule</title>
<polygon fill="none" stroke="#000000" stroke-dasharray="1,5" points="8,-70 8,-195 934,-195 934,-70 8,-70"/>
</g>
<g id="clust2" class="cluster">
<title>cluster_OwnersModule_declarations</title>
<polygon fill="none" stroke="#000000" points="304,-78 304,-130 926,-130 926,-78 304,-78"/>
</g>
<g id="clust7" class="cluster">
<title>cluster_OwnersModule_imports</title>
<polygon fill="none" stroke="#000000" points="16,-78 16,-130 296,-130 296,-78 16,-78"/>
</g>
<!-- OwnersComponent -->
<g id="node1" class="node">
<title>OwnersComponent</title>
<polygon fill="#ffffb3" stroke="#000000" points="918.3655,-122 793.6345,-122 793.6345,-86 918.3655,-86 918.3655,-122"/>
<text text-anchor="middle" x="856" y="-99.8" font-family="Times,serif" font-size="14.00" fill="#000000">OwnersComponent</text>
</g>
<!-- OwnersModule -->
<g id="node5" class="node">
<title>OwnersModule</title>
<polygon fill="#8dd3c7" stroke="#000000" points="515.5828,-187 512.5828,-191 491.5828,-191 488.5828,-187 412.4172,-187 412.4172,-151 515.5828,-151 515.5828,-187"/>
<text text-anchor="middle" x="464" y="-164.8" font-family="Times,serif" font-size="14.00" fill="#000000">OwnersModule</text>
</g>
<!-- OwnersComponent&#45;&gt;OwnersModule -->
<g id="edge1" class="edge">
<title>OwnersComponent&#45;&gt;OwnersModule</title>
<path fill="none" stroke="#000000" d="M856,-122.2843C856,-143.3211 856,-175 856,-175 856,-175 525.6503,-175 525.6503,-175"/>
<polygon fill="#000000" stroke="#000000" points="525.6503,-171.5001 515.6503,-175 525.6502,-178.5001 525.6503,-171.5001"/>
</g>
<!-- OwnerListComponent -->
<g id="node2" class="node">
<title>OwnerListComponent</title>
<polygon fill="#ffffb3" stroke="#000000" points="775.6993,-122 634.3007,-122 634.3007,-86 775.6993,-86 775.6993,-122"/>
<text text-anchor="middle" x="705" y="-99.8" font-family="Times,serif" font-size="14.00" fill="#000000">OwnerListComponent</text>
</g>
<!-- OwnerListComponent&#45;&gt;OwnersModule -->
<g id="edge2" class="edge">
<title>OwnerListComponent&#45;&gt;OwnersModule</title>
<path fill="none" stroke="#000000" d="M705,-122.0225C705,-139.3734 705,-163 705,-163 705,-163 525.7005,-163 525.7005,-163"/>
<polygon fill="#000000" stroke="#000000" points="525.7006,-159.5001 515.7005,-163 525.7005,-166.5001 525.7006,-159.5001"/>
</g>
<!-- OwnerEditComponent -->
<g id="node3" class="node">
<title>OwnerEditComponent</title>
<polygon fill="#ffffb3" stroke="#000000" points="616.2548,-122 473.7452,-122 473.7452,-86 616.2548,-86 616.2548,-122"/>
<text text-anchor="middle" x="545" y="-99.8" font-family="Times,serif" font-size="14.00" fill="#000000">OwnerEditComponent</text>
</g>
<!-- OwnerEditComponent&#45;&gt;OwnersModule -->
<g id="edge3" class="edge">
<title>OwnerEditComponent&#45;&gt;OwnersModule</title>
<path fill="none" stroke="#000000" d="M494.5821,-122.1061C494.5821,-122.1061 494.5821,-140.991 494.5821,-140.991"/>
<polygon fill="#000000" stroke="#000000" points="491.0821,-140.9909 494.5821,-150.991 498.0821,-140.991 491.0821,-140.9909"/>
</g>
<!-- OwnerAddComponent -->
<g id="node4" class="node">
<title>OwnerAddComponent</title>
<polygon fill="#ffffb3" stroke="#000000" points="455.5282,-122 312.4718,-122 312.4718,-86 455.5282,-86 455.5282,-122"/>
<text text-anchor="middle" x="384" y="-99.8" font-family="Times,serif" font-size="14.00" fill="#000000">OwnerAddComponent</text>
</g>
<!-- OwnerAddComponent&#45;&gt;OwnersModule -->
<g id="edge4" class="edge">
<title>OwnerAddComponent&#45;&gt;OwnersModule</title>
<path fill="none" stroke="#000000" d="M434.1111,-122.1061C434.1111,-122.1061 434.1111,-140.991 434.1111,-140.991"/>
<polygon fill="#000000" stroke="#000000" points="430.6112,-140.9909 434.1111,-150.991 437.6112,-140.991 430.6112,-140.9909"/>
</g>
<!-- ThemeModule -->
<g id="node6" class="node">
<title>ThemeModule</title>
<polygon fill="#8dd3c7" stroke="#000000" points="288.4231,-122 285.4231,-126 264.4231,-126 261.4231,-122 189.5769,-122 189.5769,-86 288.4231,-86 288.4231,-122"/>
<text text-anchor="middle" x="239" y="-99.8" font-family="Times,serif" font-size="14.00" fill="#000000">ThemeModule</text>
</g>
<!-- ThemeModule&#45;&gt;OwnersModule -->
<g id="edge5" class="edge">
<title>ThemeModule&#45;&gt;OwnersModule</title>
<path fill="none" stroke="#000000" d="M239,-122.0225C239,-139.3734 239,-163 239,-163 239,-163 402.3805,-163 402.3805,-163"/>
<polygon fill="#000000" stroke="#000000" points="402.3805,-166.5001 412.3805,-163 402.3804,-159.5001 402.3805,-166.5001"/>
</g>
<!-- OwnersRoutingModule -->
<g id="node7" class="node">
<title>OwnersRoutingModule</title>
<polygon fill="#8dd3c7" stroke="#000000" points="172.2007,-122 169.2007,-126 148.2007,-126 145.2007,-122 23.7993,-122 23.7993,-86 172.2007,-86 172.2007,-122"/>
<text text-anchor="middle" x="98" y="-99.8" font-family="Times,serif" font-size="14.00" fill="#000000">OwnersRoutingModule</text>
</g>
<!-- OwnersRoutingModule&#45;&gt;OwnersModule -->
<g id="edge6" class="edge">
<title>OwnersRoutingModule&#45;&gt;OwnersModule</title>
<path fill="none" stroke="#000000" d="M98,-122.2843C98,-143.3211 98,-175 98,-175 98,-175 402.3374,-175 402.3374,-175"/>
<polygon fill="#000000" stroke="#000000" points="402.3374,-178.5001 412.3374,-175 402.3374,-171.5001 402.3374,-178.5001"/>
</g>
</g>
</svg>
