<?xml version="1.0" encoding="UTF-8" standalone="no"?>
<!DOCTYPE svg PUBLIC "-//W3C//DTD SVG 1.1//EN"
 "http://www.w3.org/Graphics/SVG/1.1/DTD/svg11.dtd">
<!-- Generated by graphviz version 2.40.1 (20161225.0304)
 -->
<!-- Title: dependencies Pages: 1 -->
<svg width="1045pt" height="211pt"
 viewBox="0.00 0.00 1045.00 211.00" xmlns="http://www.w3.org/2000/svg" xmlns:xlink="http://www.w3.org/1999/xlink">
<g id="graph0" class="graph" transform="scale(1 1) rotate(0) translate(4 207)">
<title>dependencies</title>
<polygon fill="#ffffff" stroke="transparent" points="-4,4 -4,-207 1041,-207 1041,4 -4,4"/>
<text text-anchor="start" x="497.5091" y="-42.4" font-family="sans-serif" font-weight="bold" font-size="14.00" fill="#000000">Legend</text>
<polygon fill="#ffffb3" stroke="transparent" points="284.5,-10 284.5,-30 304.5,-30 304.5,-10 284.5,-10"/>
<text text-anchor="start" x="308.129" y="-15.4" font-family="sans-serif" font-size="14.00" fill="#000000"> &#160;Declarations</text>
<polygon fill="#8dd3c7" stroke="transparent" points="397.5,-10 397.5,-30 417.5,-30 417.5,-10 397.5,-10"/>
<text text-anchor="start" x="421.2251" y="-15.4" font-family="sans-serif" font-size="14.00" fill="#000000"> &#160;Module</text>
<polygon fill="#80b1d3" stroke="transparent" points="483.5,-10 483.5,-30 503.5,-30 503.5,-10 483.5,-10"/>
<text text-anchor="start" x="507.2812" y="-15.4" font-family="sans-serif" font-size="14.00" fill="#000000"> &#160;Bootstrap</text>
<polygon fill="#fdb462" stroke="transparent" points="580.5,-10 580.5,-30 600.5,-30 600.5,-10 580.5,-10"/>
<text text-anchor="start" x="604.1732" y="-15.4" font-family="sans-serif" font-size="14.00" fill="#000000"> &#160;Providers</text>
<polygon fill="#fb8072" stroke="transparent" points="676.5,-10 676.5,-30 696.5,-30 696.5,-10 676.5,-10"/>
<text text-anchor="start" x="700.2258" y="-15.4" font-family="sans-serif" font-size="14.00" fill="#000000"> &#160;Exports</text>
<g id="clust1" class="cluster">
<title>cluster_EmployeesModule</title>
<polygon fill="none" stroke="#000000" stroke-dasharray="1,5" points="8,-70 8,-195 1029,-195 1029,-70 8,-70"/>
</g>
<g id="clust2" class="cluster">
<title>cluster_EmployeesModule_declarations</title>
<polygon fill="none" stroke="#000000" points="323,-78 323,-130 1021,-130 1021,-78 323,-78"/>
</g>
<g id="clust7" class="cluster">
<title>cluster_EmployeesModule_imports</title>
<polygon fill="none" stroke="#000000" points="16,-78 16,-130 315,-130 315,-78 16,-78"/>
</g>
<!-- EmployeesComponent -->
<g id="node1" class="node">
<title>EmployeesComponent</title>
<polygon fill="#ffffb3" stroke="#000000" points="1012.5407,-122 869.4593,-122 869.4593,-86 1012.5407,-86 1012.5407,-122"/>
<text text-anchor="middle" x="941" y="-99.8" font-family="Times,serif" font-size="14.00" fill="#000000">EmployeesComponent</text>
</g>
<!-- EmployeesModule -->
<g id="node5" class="node">
<title>EmployeesModule</title>
<polygon fill="#8dd3c7" stroke="#000000" points="562.7576,-187 559.7576,-191 538.7576,-191 535.7576,-187 441.2424,-187 441.2424,-151 562.7576,-151 562.7576,-187"/>
<text text-anchor="middle" x="502" y="-164.8" font-family="Times,serif" font-size="14.00" fill="#000000">EmployeesModule</text>
</g>
<!-- EmployeesComponent&#45;&gt;EmployeesModule -->
<g id="edge1" class="edge">
<title>EmployeesComponent&#45;&gt;EmployeesModule</title>
<path fill="none" stroke="#000000" d="M941,-122.2843C941,-143.3211 941,-175 941,-175 941,-175 573.0411,-175 573.0411,-175"/>
<polygon fill="#000000" stroke="#000000" points="573.0411,-171.5001 563.0411,-175 573.041,-178.5001 573.0411,-171.5001"/>
</g>
<!-- EmployeeListComponent -->
<g id="node2" class="node">
<title>EmployeeListComponent</title>
<polygon fill="#ffffb3" stroke="#000000" points="850.8738,-122 691.1262,-122 691.1262,-86 850.8738,-86 850.8738,-122"/>
<text text-anchor="middle" x="771" y="-99.8" font-family="Times,serif" font-size="14.00" fill="#000000">EmployeeListComponent</text>
</g>
<!-- EmployeeListComponent&#45;&gt;EmployeesModule -->
<g id="edge2" class="edge">
<title>EmployeeListComponent&#45;&gt;EmployeesModule</title>
<path fill="none" stroke="#000000" d="M771,-122.0225C771,-139.3734 771,-163 771,-163 771,-163 573.0403,-163 573.0403,-163"/>
<polygon fill="#000000" stroke="#000000" points="573.0403,-159.5001 563.0403,-163 573.0402,-166.5001 573.0403,-159.5001"/>
</g>
<!-- EmployeeEditComponent -->
<g id="node3" class="node">
<title>EmployeeEditComponent</title>
<polygon fill="#ffffb3" stroke="#000000" points="672.9298,-122 511.0702,-122 511.0702,-86 672.9298,-86 672.9298,-122"/>
<text text-anchor="middle" x="592" y="-99.8" font-family="Times,serif" font-size="14.00" fill="#000000">EmployeeEditComponent</text>
</g>
<!-- EmployeeEditComponent&#45;&gt;EmployeesModule -->
<g id="edge3" class="edge">
<title>EmployeeEditComponent&#45;&gt;EmployeesModule</title>
<path fill="none" stroke="#000000" d="M537.0821,-122.1061C537.0821,-122.1061 537.0821,-140.991 537.0821,-140.991"/>
<polygon fill="#000000" stroke="#000000" points="533.5821,-140.9909 537.0821,-150.991 540.5821,-140.991 533.5821,-140.9909"/>
</g>
<!-- EmployeeAddComponent -->
<g id="node4" class="node">
<title>EmployeeAddComponent</title>
<polygon fill="#ffffb3" stroke="#000000" points="493.2021,-122 330.7979,-122 330.7979,-86 493.2021,-86 493.2021,-122"/>
<text text-anchor="middle" x="412" y="-99.8" font-family="Times,serif" font-size="14.00" fill="#000000">EmployeeAddComponent</text>
</g>
<!-- EmployeeAddComponent&#45;&gt;EmployeesModule -->
<g id="edge4" class="edge">
<title>EmployeeAddComponent&#45;&gt;EmployeesModule</title>
<path fill="none" stroke="#000000" d="M467.1112,-122.1061C467.1112,-122.1061 467.1112,-140.991 467.1112,-140.991"/>
<polygon fill="#000000" stroke="#000000" points="463.6112,-140.9909 467.1112,-150.991 470.6112,-140.991 463.6112,-140.9909"/>
</g>
<!-- ThemeModule -->
<g id="node6" class="node">
<title>ThemeModule</title>
<polygon fill="#8dd3c7" stroke="#000000" points="307.4231,-122 304.4231,-126 283.4231,-126 280.4231,-122 208.5769,-122 208.5769,-86 307.4231,-86 307.4231,-122"/>
<text text-anchor="middle" x="258" y="-99.8" font-family="Times,serif" font-size="14.00" fill="#000000">ThemeModule</text>
</g>
<!-- ThemeModule&#45;&gt;EmployeesModule -->
<g id="edge5" class="edge">
<title>ThemeModule&#45;&gt;EmployeesModule</title>
<path fill="none" stroke="#000000" d="M258,-122.0225C258,-139.3734 258,-163 258,-163 258,-163 431.0579,-163 431.0579,-163"/>
<polygon fill="#000000" stroke="#000000" points="431.0579,-166.5001 441.0579,-163 431.0579,-159.5001 431.0579,-166.5001"/>
</g>
<!-- EmployeesRoutingModule -->
<g id="node7" class="node">
<title>EmployeesRoutingModule</title>
<polygon fill="#8dd3c7" stroke="#000000" points="190.3752,-122 187.3752,-126 166.3752,-126 163.3752,-122 23.6248,-122 23.6248,-86 190.3752,-86 190.3752,-122"/>
<text text-anchor="middle" x="107" y="-99.8" font-family="Times,serif" font-size="14.00" fill="#000000">EmployeesRoutingModule</text>
</g>
<!-- EmployeesRoutingModule&#45;&gt;EmployeesModule -->
<g id="edge6" class="edge">
<title>EmployeesRoutingModule&#45;&gt;EmployeesModule</title>
<path fill="none" stroke="#000000" d="M107,-122.2843C107,-143.3211 107,-175 107,-175 107,-175 431.1469,-175 431.1469,-175"/>
<polygon fill="#000000" stroke="#000000" points="431.1469,-178.5001 441.1469,-175 431.1469,-171.5001 431.1469,-178.5001"/>
</g>
</g>
</svg>
