<?xml version="1.0" encoding="UTF-8" standalone="no"?>
<!DOCTYPE svg PUBLIC "-//W3C//DTD SVG 1.1//EN"
 "http://www.w3.org/Graphics/SVG/1.1/DTD/svg11.dtd">
<!-- Generated by graphviz version 2.40.1 (20161225.0304)
 -->
<!-- Title: dependencies Pages: 1 -->
<svg width="1140pt" height="211pt"
 viewBox="0.00 0.00 1140.00 211.00" xmlns="http://www.w3.org/2000/svg" xmlns:xlink="http://www.w3.org/1999/xlink">
<g id="graph0" class="graph" transform="scale(1 1) rotate(0) translate(4 207)">
<title>dependencies</title>
<polygon fill="#ffffff" stroke="transparent" points="-4,4 -4,-207 1136,-207 1136,4 -4,4"/>
<text text-anchor="start" x="545.0091" y="-42.4" font-family="sans-serif" font-weight="bold" font-size="14.00" fill="#000000">Legend</text>
<polygon fill="#ffffb3" stroke="transparent" points="332,-10 332,-30 352,-30 352,-10 332,-10"/>
<text text-anchor="start" x="355.629" y="-15.4" font-family="sans-serif" font-size="14.00" fill="#000000"> &#160;Declarations</text>
<polygon fill="#8dd3c7" stroke="transparent" points="445,-10 445,-30 465,-30 465,-10 445,-10"/>
<text text-anchor="start" x="468.7251" y="-15.4" font-family="sans-serif" font-size="14.00" fill="#000000"> &#160;Module</text>
<polygon fill="#80b1d3" stroke="transparent" points="531,-10 531,-30 551,-30 551,-10 531,-10"/>
<text text-anchor="start" x="554.7812" y="-15.4" font-family="sans-serif" font-size="14.00" fill="#000000"> &#160;Bootstrap</text>
<polygon fill="#fdb462" stroke="transparent" points="628,-10 628,-30 648,-30 648,-10 628,-10"/>
<text text-anchor="start" x="651.6732" y="-15.4" font-family="sans-serif" font-size="14.00" fill="#000000"> &#160;Providers</text>
<polygon fill="#fb8072" stroke="transparent" points="724,-10 724,-30 744,-30 744,-10 724,-10"/>
<text text-anchor="start" x="747.7258" y="-15.4" font-family="sans-serif" font-size="14.00" fill="#000000"> &#160;Exports</text>
<g id="clust1" class="cluster">
<title>cluster_ManufacturersModule</title>
<polygon fill="none" stroke="#000000" stroke-dasharray="1,5" points="8,-70 8,-195 1124,-195 1124,-70 8,-70"/>
</g>
<g id="clust2" class="cluster">
<title>cluster_ManufacturersModule_declarations</title>
<polygon fill="none" stroke="#000000" points="342,-78 342,-130 1116,-130 1116,-78 342,-78"/>
</g>
<g id="clust7" class="cluster">
<title>cluster_ManufacturersModule_imports</title>
<polygon fill="none" stroke="#000000" points="16,-78 16,-130 334,-130 334,-78 16,-78"/>
</g>
<!-- ManufacturersComponent -->
<g id="node1" class="node">
<title>ManufacturersComponent</title>
<polygon fill="#ffffb3" stroke="#000000" points="1108.4524,-122 945.5476,-122 945.5476,-86 1108.4524,-86 1108.4524,-122"/>
<text text-anchor="middle" x="1027" y="-99.8" font-family="Times,serif" font-size="14.00" fill="#000000">ManufacturersComponent</text>
</g>
<!-- ManufacturersModule -->
<g id="node5" class="node">
<title>ManufacturersModule</title>
<polygon fill="#8dd3c7" stroke="#000000" points="610.6699,-187 607.6699,-191 586.6699,-191 583.6699,-187 469.3301,-187 469.3301,-151 610.6699,-151 610.6699,-187"/>
<text text-anchor="middle" x="540" y="-164.8" font-family="Times,serif" font-size="14.00" fill="#000000">ManufacturersModule</text>
</g>
<!-- ManufacturersComponent&#45;&gt;ManufacturersModule -->
<g id="edge1" class="edge">
<title>ManufacturersComponent&#45;&gt;ManufacturersModule</title>
<path fill="none" stroke="#000000" d="M1027,-122.2843C1027,-143.3211 1027,-175 1027,-175 1027,-175 620.814,-175 620.814,-175"/>
<polygon fill="#000000" stroke="#000000" points="620.814,-171.5001 610.814,-175 620.8139,-178.5001 620.814,-171.5001"/>
</g>
<!-- ManufacturerListComponent -->
<g id="node2" class="node">
<title>ManufacturerListComponent</title>
<polygon fill="#ffffb3" stroke="#000000" points="927.7864,-122 748.2136,-122 748.2136,-86 927.7864,-86 927.7864,-122"/>
<text text-anchor="middle" x="838" y="-99.8" font-family="Times,serif" font-size="14.00" fill="#000000">ManufacturerListComponent</text>
</g>
<!-- ManufacturerListComponent&#45;&gt;ManufacturersModule -->
<g id="edge2" class="edge">
<title>ManufacturerListComponent&#45;&gt;ManufacturersModule</title>
<path fill="none" stroke="#000000" d="M838,-122.0225C838,-139.3734 838,-163 838,-163 838,-163 620.6218,-163 620.6218,-163"/>
<polygon fill="#000000" stroke="#000000" points="620.6219,-159.5001 610.6218,-163 620.6218,-166.5001 620.6219,-159.5001"/>
</g>
<!-- ManufacturerEditComponent -->
<g id="node3" class="node">
<title>ManufacturerEditComponent</title>
<polygon fill="#ffffb3" stroke="#000000" points="730.3417,-122 549.6583,-122 549.6583,-86 730.3417,-86 730.3417,-122"/>
<text text-anchor="middle" x="640" y="-99.8" font-family="Times,serif" font-size="14.00" fill="#000000">ManufacturerEditComponent</text>
</g>
<!-- ManufacturerEditComponent&#45;&gt;ManufacturersModule -->
<g id="edge3" class="edge">
<title>ManufacturerEditComponent&#45;&gt;ManufacturersModule</title>
<path fill="none" stroke="#000000" d="M580.0821,-122.1061C580.0821,-122.1061 580.0821,-140.991 580.0821,-140.991"/>
<polygon fill="#000000" stroke="#000000" points="576.5821,-140.9909 580.0821,-150.991 583.5821,-140.991 576.5821,-140.9909"/>
</g>
<!-- ManufacturerAddComponent -->
<g id="node4" class="node">
<title>ManufacturerAddComponent</title>
<polygon fill="#ffffb3" stroke="#000000" points="531.6148,-122 350.3852,-122 350.3852,-86 531.6148,-86 531.6148,-122"/>
<text text-anchor="middle" x="441" y="-99.8" font-family="Times,serif" font-size="14.00" fill="#000000">ManufacturerAddComponent</text>
</g>
<!-- ManufacturerAddComponent&#45;&gt;ManufacturersModule -->
<g id="edge4" class="edge">
<title>ManufacturerAddComponent&#45;&gt;ManufacturersModule</title>
<path fill="none" stroke="#000000" d="M500.6112,-122.1061C500.6112,-122.1061 500.6112,-140.991 500.6112,-140.991"/>
<polygon fill="#000000" stroke="#000000" points="497.1112,-140.9909 500.6112,-150.991 504.1112,-140.991 497.1112,-140.9909"/>
</g>
<!-- ThemeModule -->
<g id="node6" class="node">
<title>ThemeModule</title>
<polygon fill="#8dd3c7" stroke="#000000" points="326.4231,-122 323.4231,-126 302.4231,-126 299.4231,-122 227.5769,-122 227.5769,-86 326.4231,-86 326.4231,-122"/>
<text text-anchor="middle" x="277" y="-99.8" font-family="Times,serif" font-size="14.00" fill="#000000">ThemeModule</text>
</g>
<!-- ThemeModule&#45;&gt;ManufacturersModule -->
<g id="edge5" class="edge">
<title>ThemeModule&#45;&gt;ManufacturersModule</title>
<path fill="none" stroke="#000000" d="M277,-122.0225C277,-139.3734 277,-163 277,-163 277,-163 459.1749,-163 459.1749,-163"/>
<polygon fill="#000000" stroke="#000000" points="459.1749,-166.5001 469.1749,-163 459.1748,-159.5001 459.1749,-166.5001"/>
</g>
<!-- ManufacturersRoutingModule -->
<g id="node7" class="node">
<title>ManufacturersRoutingModule</title>
<polygon fill="#8dd3c7" stroke="#000000" points="210.2878,-122 207.2878,-126 186.2878,-126 183.2878,-122 23.7122,-122 23.7122,-86 210.2878,-86 210.2878,-122"/>
<text text-anchor="middle" x="117" y="-99.8" font-family="Times,serif" font-size="14.00" fill="#000000">ManufacturersRoutingModule</text>
</g>
<!-- ManufacturersRoutingModule&#45;&gt;ManufacturersModule -->
<g id="edge6" class="edge">
<title>ManufacturersRoutingModule&#45;&gt;ManufacturersModule</title>
<path fill="none" stroke="#000000" d="M117,-122.2843C117,-143.3211 117,-175 117,-175 117,-175 459.1993,-175 459.1993,-175"/>
<polygon fill="#000000" stroke="#000000" points="459.1993,-178.5001 469.1993,-175 459.1993,-171.5001 459.1993,-178.5001"/>
</g>
</g>
</svg>
